<svg width="37" height="36" viewBox="0 0 37 36" fill="none" xmlns="http://www.w3.org/2000/svg">
<rect x="0.5" width="36" height="36" rx="7" fill="black"/>
<path d="M21.7417 10.3653C20.9565 11.2469 19.7002 11.9423 18.4438 11.843C18.2868 10.6509 18.9019 9.38424 19.6216 8.60191C20.4069 7.6954 21.781 7.04967 22.8934 7C23.0243 8.24179 22.5139 9.45875 21.7417 10.3653ZM22.8803 12.0789C21.0612 11.9796 19.5039 13.06 18.6401 13.06C17.7633 13.06 16.4415 12.1286 15.0019 12.1534C13.1305 12.1783 11.3899 13.1841 10.4346 14.786C8.47154 17.9899 9.92419 22.7335 11.8218 25.3413C12.751 26.6328 13.8634 28.0484 15.3291 27.9987C16.7163 27.9491 17.266 27.1419 18.9411 27.1419C20.6293 27.1419 21.1136 27.9987 22.5793 27.9739C24.0974 27.9491 25.0527 26.6824 25.9819 25.391C27.042 23.9256 27.4738 22.4976 27.5 22.4231C27.4738 22.3982 24.5685 21.3427 24.5423 18.1637C24.5162 15.5063 26.8326 14.2397 26.9373 14.1651C25.6286 12.3273 23.587 12.1286 22.8803 12.0789Z" fill="white"/>
</svg>
