<svg width="37" height="36" viewBox="0 0 37 36" fill="none" xmlns="http://www.w3.org/2000/svg">
<rect x="0.5" width="36" height="36" rx="7" fill="white"/>
<g clip-path="url(#clip0_561_5082)">
<mask id="mask0_561_5082" style="mask-type:luminance" maskUnits="userSpaceOnUse" x="9" y="10" width="19" height="18">
<path d="M27.1676 17.3636H18.7813V20.8409H23.6085C23.1585 23.05 21.2767 24.3182 18.7813 24.3182C15.8358 24.3182 13.4631 21.9455 13.4631 19C13.4631 16.0545 15.8358 13.6818 18.7813 13.6818C20.0494 13.6818 21.1949 14.1318 22.0949 14.8682L24.7131 12.25C23.1176 10.8591 21.0722 10 18.7813 10C13.7903 10 9.78125 14.0091 9.78125 19C9.78125 23.9909 13.7903 28 18.7813 28C23.2813 28 27.3722 24.7273 27.3722 19C27.3722 18.4682 27.2903 17.8955 27.1676 17.3636Z" fill="white"/>
</mask>
<g mask="url(#mask0_561_5082)">
<path d="M8.96289 24.318V13.6816L15.9174 18.9998L8.96289 24.318Z" fill="#FBBC05"/>
</g>
<mask id="mask1_561_5082" style="mask-type:luminance" maskUnits="userSpaceOnUse" x="9" y="10" width="19" height="18">
<path d="M27.1676 17.3636H18.7813V20.8409H23.6085C23.1585 23.05 21.2767 24.3182 18.7813 24.3182C15.8358 24.3182 13.4631 21.9455 13.4631 19C13.4631 16.0545 15.8358 13.6818 18.7813 13.6818C20.0494 13.6818 21.1949 14.1318 22.0949 14.8682L24.7131 12.25C23.1176 10.8591 21.0722 10 18.7813 10C13.7903 10 9.78125 14.0091 9.78125 19C9.78125 23.9909 13.7903 28 18.7813 28C23.2813 28 27.3722 24.7273 27.3722 19C27.3722 18.4682 27.2903 17.8955 27.1676 17.3636Z" fill="white"/>
</mask>
<g mask="url(#mask1_561_5082)">
<path d="M8.96289 13.6816L15.9174 18.9998L18.7811 16.5044L28.5993 14.9089V9.18164H8.96289V13.6816Z" fill="#EA4335"/>
</g>
<mask id="mask2_561_5082" style="mask-type:luminance" maskUnits="userSpaceOnUse" x="9" y="10" width="19" height="18">
<path d="M27.1676 17.3636H18.7813V20.8409H23.6085C23.1585 23.05 21.2767 24.3182 18.7813 24.3182C15.8358 24.3182 13.4631 21.9455 13.4631 19C13.4631 16.0545 15.8358 13.6818 18.7813 13.6818C20.0494 13.6818 21.1949 14.1318 22.0949 14.8682L24.7131 12.25C23.1176 10.8591 21.0722 10 18.7813 10C13.7903 10 9.78125 14.0091 9.78125 19C9.78125 23.9909 13.7903 28 18.7813 28C23.2813 28 27.3722 24.7273 27.3722 19C27.3722 18.4682 27.2903 17.8955 27.1676 17.3636Z" fill="white"/>
</mask>
<g mask="url(#mask2_561_5082)">
<path d="M8.96289 24.318L21.2356 14.9089L24.4674 15.318L28.5993 9.18164V28.818H8.96289V24.318Z" fill="#34A853"/>
</g>
<mask id="mask3_561_5082" style="mask-type:luminance" maskUnits="userSpaceOnUse" x="9" y="10" width="19" height="18">
<path d="M27.1676 17.3636H18.7813V20.8409H23.6085C23.1585 23.05 21.2767 24.3182 18.7813 24.3182C15.8358 24.3182 13.4631 21.9455 13.4631 19C13.4631 16.0545 15.8358 13.6818 18.7813 13.6818C20.0494 13.6818 21.1949 14.1318 22.0949 14.8682L24.7131 12.25C23.1176 10.8591 21.0722 10 18.7813 10C13.7903 10 9.78125 14.0091 9.78125 19C9.78125 23.9909 13.7903 28 18.7813 28C23.2813 28 27.3722 24.7273 27.3722 19C27.3722 18.4682 27.2903 17.8955 27.1676 17.3636Z" fill="white"/>
</mask>
<g mask="url(#mask3_561_5082)">
<path d="M28.5994 28.818L15.9176 18.9998L14.2812 17.7726L28.5994 13.6816V28.818Z" fill="#4285F4"/>
</g>
</g>
<defs>
<clipPath id="clip0_561_5082">
<rect x="9.5" y="10" width="18" height="18" rx="7" fill="white"/>
</clipPath>
</defs>
</svg>
