<svg aria-hidden="true" style="position: absolute; width: 0; height: 0; overflow: hidden;" version="1.1" xmlns="http://www.w3.org/2000/svg" xmlns:xlink="http://www.w3.org/1999/xlink">
<defs>
<symbol id="arrow-correct" viewBox="0 0 32 32">
<path  stroke-linejoin="round" stroke-linecap="round" stroke-miterlimit="4" stroke-width="2.6667" d="M26.061 9.333l-13.333 13.333-6.061-6.061"></path>
</symbol>
<symbol id="arrow-right" viewBox="0 0 32 32">
<path stroke-linejoin="round" stroke-linecap="round" stroke-miterlimit="4" stroke-width="2.6667" d="M12 24l7.057-7.057c0.521-0.521 0.521-1.365 0-1.886l-7.057-7.057"></path>
</symbol>
<symbol id="close" viewBox="0 0 32 32">
<path  stroke-linejoin="round" stroke-linecap="round" stroke-miterlimit="4" stroke-width="2.6667" d="M8 8l16 16"></path>
<path  stroke-linejoin="round" stroke-linecap="round" stroke-miterlimit="4" stroke-width="2.6667" d="M24 8l-16 16"></path>
</symbol>
<symbol id="copy" viewBox="0 0 32 32">
<path  d="M24 5c0.796 0 1.559 0.316 2.121 0.879s0.879 1.326 0.879 2.121v8c0 0.796-0.316 1.559-0.879 2.121s-1.326 0.879-2.121 0.879h-2v-3c0-1.591-0.632-3.117-1.757-4.243s-2.651-1.757-4.243-1.757h-3v-2c0-0.796 0.316-1.559 0.879-2.121s1.326-0.879 2.121-0.879h8zM22 22h2c1.591 0 3.117-0.632 4.243-1.757s1.757-2.651 1.757-4.243v-8c0-1.591-0.632-3.117-1.757-4.243s-2.651-1.757-4.243-1.757h-8c-1.591 0-3.117 0.632-4.243 1.757s-1.757 2.651-1.757 4.243v2h-2c-1.591 0-3.117 0.632-4.243 1.757s-1.757 2.651-1.757 4.243v8c0 1.591 0.632 3.117 1.757 4.243s2.651 1.757 4.243 1.757h8c1.591 0 3.117-0.632 4.243-1.757s1.757-2.651 1.757-4.243v-2zM8 13h8c0.796 0 1.559 0.316 2.121 0.879s0.879 1.326 0.879 2.121v8c0 0.796-0.316 1.559-0.879 2.121s-1.326 0.879-2.121 0.879h-8c-0.796 0-1.559-0.316-2.121-0.879s-0.879-1.326-0.879-2.121v-8c0-0.796 0.316-1.559 0.879-2.121s1.326-0.879 2.121-0.879z"></path>
</symbol>
<symbol id="edit" viewBox="0 0 32 32">
<path d="M6.667 21.333l-1.333 5.333 5.333-1.333 13.333-13.333-4-4-13.333 13.333z"></path>
<path d="M24 12l2.115-2.115c0.5-0.5 0.781-1.178 0.781-1.885s-0.281-1.385-0.781-1.885l-0.229-0.229c-0.5-0.5-1.178-0.781-1.885-0.781s-1.385 0.281-1.885 0.781l-2.115 2.115 4 4z"></path>
<path  stroke-linejoin="round" stroke-linecap="round" stroke-miterlimit="4" stroke-width="2.6667" d="M6.667 21.333l-1.333 5.333 5.333-1.333M6.667 21.333l15.448-15.448M6.667 21.333l13.333-13.333M10.667 25.333l15.448-15.448M10.667 25.333l13.333-13.333M26.115 9.885c0.5-0.5 0.781-1.178 0.781-1.885s-0.281-1.385-0.781-1.885l-0.229-0.229c-0.5-0.5-1.178-0.781-1.885-0.781s-1.385 0.281-1.885 0.781M26.115 9.885l-2.115 2.115M22.115 5.885l-2.115 2.115M20 8l4 4M17.333 26.666h10.667"></path>
</symbol>
<symbol id="eye-open" viewBox="0 0 32 32">
<path d="M12 5.947c1.509-0.47 2.643-0.617 4-0.613 5.576 0 9.371 3.333 11.633 6.272l0.004 0.005c1.131 1.471 1.696 2.207 1.696 4.389 0 2.185-0.566 2.92-1.697 4.391l-0.003 0.004c-2.263 2.939-6.057 6.272-11.633 6.272s-9.371-3.333-11.633-6.272c-1.133-1.472-1.7-2.209-1.7-4.395s0.566-2.92 1.697-4.391l0.003-0.004c0.691-0.903 1.461-1.743 2.3-2.511 1.953-1.626 3.024-2.428 5.333-3.148zM20.714 20.714c1.25-1.25 1.953-2.946 1.953-4.714s-0.702-3.464-1.953-4.714c-1.25-1.25-2.946-1.953-4.714-1.953s-3.464 0.702-4.714 1.953c-1.25 1.25-1.953 2.946-1.953 4.714s0.702 3.464 1.953 4.714c1.25 1.25 2.946 1.953 4.714 1.953s3.464-0.702 4.714-1.953z"></path>
<path  stroke-linejoin="miter" stroke-linecap="round" stroke-miterlimit="4" stroke-width="2.6667" d="M27.633 11.605c-2.263-2.939-6.057-6.272-11.633-6.272-1.357-0.004-2.491 0.143-4 0.613-2.309 0.72-3.381 1.522-5.333 3.148-0.839 0.767-1.609 1.608-2.3 2.511M27.633 11.605l0.004 0.005M27.633 11.605c0.001 0.002 0.003 0.004 0.004 0.005M27.633 20.395c-2.263 2.939-6.057 6.272-11.633 6.272s-9.371-3.333-11.633-6.272c-1.133-1.472-1.7-2.209-1.7-4.395s0.566-2.92 1.697-4.391M27.633 20.395l0.003-0.004M27.633 20.395c0.001-0.001 0.002-0.003 0.003-0.004M4.367 11.605l-0.003 0.004M4.367 11.605c-0.001 0.001-0.002 0.003-0.003 0.004M27.637 11.611c1.131 1.471 1.696 2.207 1.696 4.389 0 2.185-0.566 2.92-1.697 4.391M22.667 16c0 1.768-0.702 3.464-1.953 4.714s-2.946 1.953-4.714 1.953-3.464-0.702-4.714-1.953c-1.25-1.25-1.953-2.946-1.953-4.714s0.702-3.464 1.953-4.714c1.25-1.25 2.946-1.953 4.714-1.953s3.464 0.702 4.714 1.953c1.25 1.25 1.953 2.946 1.953 4.714z"></path>
</symbol>
<symbol id="plus" viewBox="0 0 32 32">
<path d="M17.867 15.201v-6.667c0-0.354-0.141-0.693-0.391-0.943s-0.589-0.391-0.943-0.391c-0.354 0-0.693 0.14-0.943 0.391s-0.391 0.589-0.391 0.943v6.667h-6.667c-0.354 0-0.693 0.14-0.943 0.391s-0.391 0.589-0.391 0.943 0.14 0.693 0.391 0.943c0.25 0.25 0.589 0.391 0.943 0.391h6.667v6.667c0 0.354 0.14 0.693 0.391 0.943s0.589 0.391 0.943 0.391 0.693-0.141 0.943-0.391c0.25-0.25 0.391-0.589 0.391-0.943v-6.667h6.667c0.354 0 0.693-0.141 0.943-0.391s0.391-0.589 0.391-0.943c0-0.354-0.141-0.693-0.391-0.943s-0.589-0.391-0.943-0.391h-6.667z"></path>
</symbol>
<symbol id="search" viewBox="0 0 32 32">
<path stroke-linejoin="round" stroke-linecap="round" stroke-miterlimit="4" stroke-width="2.6667" d="M25.245 15.289v0c0 5.499-4.457 9.956-9.956 9.956v0c-5.499 0-9.956-4.457-9.956-9.956v0c0-5.499 4.457-9.956 9.956-9.956v0c5.499 0 9.956 4.457 9.956 9.956z"></path>
<path  stroke-linejoin="round" stroke-linecap="round" stroke-miterlimit="4" stroke-width="2.6667" d="M26.667 26.667l-4-4"></path>
</symbol>
<symbol id="share" viewBox="0 0 32 32">
<path d="M17.494 22.698l-5.599-3.053c-0.731 0.781-1.68 1.325-2.724 1.56s-2.134 0.15-3.13-0.243c-0.995-0.393-1.849-1.076-2.451-1.961s-0.924-1.93-0.924-3 0.322-2.115 0.924-3c0.602-0.885 1.456-1.568 2.451-1.961s2.086-0.477 3.13-0.242c1.044 0.235 1.993 0.778 2.724 1.56l5.6-3.053c-0.317-1.259-0.165-2.59 0.429-3.744s1.588-2.052 2.797-2.526c1.209-0.473 2.549-0.49 3.768-0.046s2.236 1.317 2.858 2.457 0.807 2.467 0.521 3.733c-0.287 1.266-1.025 2.384-2.077 3.145s-2.345 1.111-3.637 0.987c-1.292-0.125-2.494-0.717-3.381-1.664l-5.6 3.053c0.215 0.855 0.215 1.75 0 2.605l5.6 3.053c0.887-0.947 2.090-1.539 3.382-1.663s2.585 0.227 3.637 0.988c1.052 0.761 1.79 1.879 2.076 3.146s0.1 2.593-0.522 3.732c-0.622 1.139-1.639 2.012-2.859 2.455s-2.56 0.426-3.768-0.048c-1.209-0.474-2.203-1.372-2.796-2.527s-0.745-2.486-0.427-3.744zM8 18.667c0.707 0 1.386-0.281 1.886-0.781s0.781-1.178 0.781-1.886c0-0.707-0.281-1.385-0.781-1.886s-1.178-0.781-1.886-0.781c-0.707 0-1.386 0.281-1.886 0.781s-0.781 1.178-0.781 1.886c0 0.707 0.281 1.385 0.781 1.886s1.178 0.781 1.886 0.781zM22.667 10.667c0.707 0 1.385-0.281 1.886-0.781s0.781-1.178 0.781-1.886c0-0.707-0.281-1.386-0.781-1.886s-1.178-0.781-1.886-0.781c-0.707 0-1.385 0.281-1.886 0.781s-0.781 1.178-0.781 1.886c0 0.707 0.281 1.386 0.781 1.886s1.178 0.781 1.886 0.781zM22.667 26.667c0.707 0 1.385-0.281 1.886-0.781s0.781-1.178 0.781-1.886c0-0.707-0.281-1.385-0.781-1.886s-1.178-0.781-1.886-0.781c-0.707 0-1.385 0.281-1.886 0.781s-0.781 1.178-0.781 1.886c0 0.707 0.281 1.385 0.781 1.886s1.178 0.781 1.886 0.781z"></path>
</symbol>
<symbol id="logo" viewBox="0 0 65 32">
<path fill="#f6f7f7" style="fill: var(--color1, #f6f7f7)" d="M3.714 0l14.878 16.126c2.905-3.149 3.998-4.463 6.265-6.92v5.243l-6.265 6.716-12.078-13.102v23.937h-2.801v-32z"></path>
<path fill="#ffc935" style="fill: var(--color2, #ffc935)" d="M32.171 32h-2.057v-8h6.229v1.6h-4.171v6.4z"></path>
<path fill="#ffc935" style="fill: var(--color2, #ffc935)" d="M37.145 24h4.8c0.8 0 1.379 0.183 1.737 0.549 0.366 0.358 0.549 0.937 0.549 1.737v1.143c0 0.8-0.183 1.383-0.549 1.749-0.358 0.358-0.937 0.537-1.737 0.537h-2.743v2.286h-2.057v-8zM42.174 26.286c0-0.457-0.229-0.686-0.686-0.686h-2.286v2.514h2.286c0.457 0 0.686-0.229 0.686-0.686v-1.143z"></path>
<path fill="#ffc935" style="fill: var(--color2, #ffc935)" d="M46.956 32.114c-0.381 0-0.773-0.038-1.177-0.114v-1.543h1.029c0.221 0 0.373-0.088 0.457-0.263 0.038-0.076 0.057-0.156 0.057-0.24 0-0.091-0.019-0.171-0.057-0.24l-3.143-5.714h2.286l2.057 4.057 1.714-4.057h2.286l-2.914 6.286c-0.267 0.602-0.587 1.051-0.96 1.349-0.411 0.32-0.956 0.48-1.634 0.48z"></path>
<path fill="#ffc935" style="fill: var(--color2, #ffc935)" d="M59.898 32h-2.057v-6.4h-2.857v6.4h-2.057v-8h6.971v8z"></path>
<path fill="#ffd74a" style="fill: var(--color3, #ffd74a)" d="M47.913 8.123l-0.184 1.248h-20.014v22.63h-3.126l0-1.275-0-4.724 0.001-0.001v-16.629l-6.876-0 6.876-6.956-0-2.414h3.126v2.204l20.198 5.919zM20.741 8.096h3.849v-3.873l-3.849 3.873zM25.865 30.725h0.576v-21.355h-0.576v21.355zM25.865 8.096h0.576v-4.781h-0.576v4.781zM25.865 2.040h0.576v-0.765h-0.576v0.765zM31.049 4.368l-3.333-0.833v3.595l3.333-2.762zM32.112 5.109l-3.558 2.987h6.545l-2.987-2.987zM34.092 5.286l2.45 2.45 1.314-1.315-3.764-1.135zM39.242 6.839l-1.256 1.256h5.423l-4.166-1.256z"></path>
<path fill="#ffd74a" style="fill: var(--color3, #ffd74a)" d="M24.59 30.725l-0 1.275v-5.999l0 4.724zM27.716 25.93v6.070l0-1.275-0-4.795z"></path>
<path fill="#ffd74a" style="fill: var(--color3, #ffd74a)" d="M26.441 30.725h-0.576v-21.355h0.576v21.355z"></path>
<path fill="#ffd74a" style="fill: var(--color3, #ffd74a)" d="M26.441 8.096h-0.576v-4.781h0.576v4.781z"></path>
<path fill="#ffd74a" style="fill: var(--color3, #ffd74a)" d="M26.441 2.040h-0.576v-0.765h0.576v0.765z"></path>
<path fill="#ffc935" style="fill: var(--color2, #ffc935)" d="M46.056 16.612v-0.558h0.97c0 0 0-0.281 0-0.627v-2.257c0-0.346 0-0.627 0-0.627h-0.844v-2.257c0 0-0.281 0-0.627 0s-0.586 0-0.586 0l-0.041 2.257h-0.405c-0.346 0-0.627 0-0.627 0v2.884c0 0.346 0 0.627 0 0.627h0.907v1.066c0 0.346 0.281 0.627 0.627 0.627 0.254 0 0.46 0.206 0.46 0.46s-0.206 0.46-0.46 0.46c-0.172 0-0.46-0.314-0.46-0.314h-1.254c0 0.908 0.721 1.567 1.714 1.567 0.945 0 1.714-0.769 1.714-1.714-0-0.724-0.451-1.345-1.087-1.595zM45.771 14.8h-0.622v-1.003h0.622v1.003z"></path>
</symbol>
</defs>
</svg>
